<?xml version="1.0" standalone="no"?><!DOCTYPE svg PUBLIC "-//W3C//DTD SVG 1.1//EN" "http://www.w3.org/Graphics/SVG/1.1/DTD/svg11.dtd"><svg t="1558950020760" class="icon" style="" viewBox="0 0 1024 1024" version="1.1" xmlns="http://www.w3.org/2000/svg" p-id="5150" xmlns:xlink="http://www.w3.org/1999/xlink" width="200" height="200"><defs><style type="text/css"></style></defs><path d="M863.6 148.85l-1.9125-2.4375c-90.6125-90.7875-215.6-146.4-353.725-146.4-138.0875 0-263.0875 55.6125-353.7 146.4-90.6125 90.5125-146.2875 215.375-146.2875 353.325 0 137.9625 55.675 262.55 146.275 353.3375 90.6125 90.225 215.6125 146.3875 353.7 146.3875l371.7375 0 1.0875 0c21.3125 0 38.7625-17.4375 38.7625-38.175l0-177.75c26.75-39.2625 48.6-82.6125 63.8625-128.9625 15.825-49.3125 24.5875-101.125 24.5875-154.85C1008 362.8625 952.85 238.825 863.6 148.85zM910.2875 630.6c-13.925 43.325-34.4125 82.8875-60.5875 118.3125-4.9375 6.55-7.1 15-7.1 22.65l0 151.025-334.6375 0c-116.7875 0-222.7125-47.4375-299.6375-124.05l0.25 0c-76.7-76.35-124.1875-182.1-124.1875-298.8 0-116.9375 47.4875-222.4375 123.9375-299.0875l0.25 0c76.675-76.325 182.6125-123.7625 299.3875-123.7625 116.8375 0 222.7375 47.4375 299.1375 123.7625l1.6375 2.1875c75.6 75.7875 122.275 180.5 122.275 296.9C931.0125 545.5375 923.6375 589.7 910.2875 630.6zM432.8875 799.3625l124.95 0 0-124.95-124.95 0L432.8875 799.3625zM641.85 283.1625c-32.3-22.3875-74.725-33.575-127.275-33.575-67.5 0-117.575 16.05-150.2375 48.1625-32.6625 32.1-51.4 74.4875-56.225 127.125l149.7625 24.6375c3.125-28.7875 0.8375-55.8875 12.05-67.45 11.2125-11.5625 25.3625-17.35 42.4875-17.35 15.9125 0 27.775 3.75 35.6125 11.2625 7.825 7.5 11.75 18.025 11.75 31.55 0 13.5375-9.7625 28.4125-29.2875 44.65-36.65 31-60.2 52.65-70.6875 64.95-10.4875 12.3125-18.3875 25.9-23.6875 40.775-5.3 14.8875-7.95 34.2625-7.95 58.125l4.725 33.4 124.95 0c0-19.1875 10.925-54.125 17.3125-66.05 6.3875-11.925 21.75-27.7375 46.1-47.4125 34.95-28.05 58.0875-51.7875 69.425-71.225 11.325-19.4375 16.9875-39.6125 16.9875-60.525C707.65 353.775 685.7125 313.425 641.85 283.1625z" p-id="5151"></path></svg>