<?xml version="1.0" standalone="no"?><!DOCTYPE svg PUBLIC "-//W3C//DTD SVG 1.1//EN" "http://www.w3.org/Graphics/SVG/1.1/DTD/svg11.dtd"><svg t="1558952327388" class="icon" style="" viewBox="0 0 1024 1024" version="1.1" xmlns="http://www.w3.org/2000/svg" p-id="7489" xmlns:xlink="http://www.w3.org/1999/xlink" width="200" height="200"><defs><style type="text/css"></style></defs><path d="M312.459636 881.524364l10.821819 5.329454A423.726545 423.726545 0 0 0 512 930.909091c230.981818 0 418.909091-182.714182 418.909091-407.272727C930.909091 299.077818 742.981818 116.363636 512 116.363636S93.090909 299.077818 93.090909 523.636364c0 86.551273 27.997091 169.518545 80.989091 239.918545l11.310545 15.010909-50.059636 140.241455 177.128727-37.282909zM512 1000.727273c-72.564364 0-142.661818-15.453091-208.546909-45.986909L129.349818 991.418182a58.181818 58.181818 0 0 1-66.746182-76.544l44.544-124.788364C52.200727 710.912 23.272727 619.194182 23.272727 523.636364 23.272727 260.561455 242.525091 46.545455 512 46.545455s488.727273 214.016 488.727273 477.090909S781.474909 1000.727273 512 1000.727273z m-186.181818-477.090909A46.545455 46.545455 0 1 1 232.727273 523.636364 46.545455 46.545455 0 0 1 325.818182 523.636364m232.727273 0A46.545455 46.545455 0 1 1 465.454545 523.636364 46.545455 46.545455 0 0 1 558.545455 523.636364m232.727272 0A46.545455 46.545455 0 1 1 698.181818 523.636364 46.545455 46.545455 0 0 1 791.272727 523.636364" p-id="7490"></path></svg>