<?xml version="1.0" standalone="no"?><!DOCTYPE svg PUBLIC "-//W3C//DTD SVG 1.1//EN" "http://www.w3.org/Graphics/SVG/1.1/DTD/svg11.dtd"><svg t="1558949664714" class="icon" style="" viewBox="0 0 1024 1024" version="1.1" xmlns="http://www.w3.org/2000/svg" p-id="3678" xmlns:xlink="http://www.w3.org/1999/xlink" width="200" height="200"><defs><style type="text/css"></style></defs><path d="M209.099924 502.17321c11.624735 0 21.05039-9.441004 21.05039-21.037087V34.611216c0-11.623712-9.425655-21.05039-21.05039-21.050389-11.623712 0-21.036063 9.426678-21.036063 21.050389v446.524907c0.001023 11.596083 9.412352 21.037087 21.036063 21.037087zM366.485126 320.651333c11.623712 0 21.05039-9.425655 21.05039-21.079042V34.611216c0-11.623712-9.426678-21.05039-21.05039-21.050389s-21.05039 9.426678-21.05039 21.050389V299.572291c0 11.653388 9.426678 21.079042 21.05039 21.079042zM523.856002 409.981692c11.610409 0 21.05039-9.425655 21.05039-21.050389V34.611216c0-11.623712-9.441004-21.05039-21.05039-21.050389-11.622689 0-21.064716 9.426678-21.064716 21.050389v354.320087c0 11.624735 9.442027 21.05039 21.064716 21.050389zM681.242227 218.752752c11.622689 0 21.036063-9.425655 21.036064-21.05039V34.611216c0-11.623712-9.412352-21.05039-21.036064-21.050389-11.623712 0-21.05039 9.426678-21.050389 21.050389V197.702362c0 11.624735 9.426678 21.05039 21.050389 21.05039z" p-id="3679"></path><path d="M995.969653 304.687788c-11.623712 0-21.037087 9.441004-21.037087 21.064716v621.564153H859.649167V467.258073c0-11.623712-9.412352-21.05039-21.037087-21.05039-11.638038 0-21.049366 9.426678-21.049367 21.05039v480.058584H702.278291V689.963849c0-11.624735-9.412352-21.05039-21.036064-21.05039-11.623712 0-21.05039 9.425655-21.050389 21.05039v257.351784H544.907415v-154.877083c0-11.623712-9.441004-21.05039-21.05039-21.05039-11.622689 0-21.05039 9.426678-21.05039 21.05039v154.877083H387.535516V756.116369c0-11.624735-9.426678-21.05039-21.05039-21.05039s-21.05039 9.425655-21.05039 21.05039v191.200288H230.151337v-20.331007c0-11.623712-9.425655-21.037087-21.05039-21.037087-11.623712 0-21.036063 9.412352-21.036063 21.037087v20.331007H98.339529l280.544974-410.721542 162.964256 101.757365c14.24644 8.861814 32.984163 5.072519 42.594012-8.692968l351.714754-503.167862 14.160483 74.127129c2.887764 15.118296 16.118064 25.657305 30.98258 25.657305 1.959627 0 3.959164-0.183171 5.947443-0.59147 17.118855-3.268433 28.362921-19.782516 25.079139-36.915697L984.612 43.59992c-1.577935-8.228389-6.354719-15.512268-13.272255-20.189791a31.380645 31.380645 0 0 0-23.671072-4.889347l-145.140344 27.772475c-17.134205 3.268433-28.349618 19.824471-25.081185 36.929 3.283783 17.134205 19.76819 28.391574 36.930024 25.081185l66.334668-12.695112L549.880673 568.916177l-163.261014-101.912907c-14.356957-8.975401-33.223616-5.016237-42.777184 8.961074L70.117824 876.697414V48.052316c0-17.428916-14.14718-31.56177-31.576096-31.56177S6.979958 30.6234 6.979958 48.052316v930.826111c0 0.407275 0.099261 0.774641 0.09926 1.168613 0.083911 1.678219 0.183171 3.311412 0.506536 4.932326 0.184195 0.943486 0.521885 1.816365 0.788967 2.747572 0.310061 1.042747 0.549514 2.09982 0.972139 3.113914 0.380669 0.92916 0.887205 1.761106 1.352808 2.649335 0.492209 0.92916 0.92916 1.887996 1.507327 2.775201 0.577144 0.845249 1.254571 1.577935 1.887996 2.366902 0.648775 0.80227 1.240245 1.662869 1.986234 2.395555 1.015118 1.042747 2.170428 1.915625 3.325738 2.81818 0.46458 0.352017 0.831946 0.774641 1.324156 1.113355 0.028653 0.014326 0.070608 0.026606 0.09926 0.041955 0.168845 0.12689 0.366343 0.197498 0.549515 0.323364a31.718336 31.718336 0 0 0 4.354159 2.366903c0.506536 0.225127 1.042747 0.408298 1.563609 0.59147 1.296526 0.492209 2.592029 0.916881 3.916185 1.240244 0.535188 0.12689 1.085726 0.239453 1.63524 0.352017 1.887996 0.338714 3.762689 0.563841 5.663988 0.56384h944.28256c11.806883 0 21.966247-6.522541 27.36213-16.118063 4.19964-3.847624 6.862278-9.299788 6.862277-15.442683V325.751481c0-11.623712-9.426678-21.063693-21.050389-21.063693z" p-id="3680"></path></svg>