<?xml version="1.0" standalone="no"?><!DOCTYPE svg PUBLIC "-//W3C//DTD SVG 1.1//EN" "http://www.w3.org/Graphics/SVG/1.1/DTD/svg11.dtd"><svg t="1558950366643" class="icon" style="" viewBox="0 0 1024 1024" version="1.1" xmlns="http://www.w3.org/2000/svg" p-id="6781" xmlns:xlink="http://www.w3.org/1999/xlink" width="200" height="200"><defs><style type="text/css"></style></defs><path d="M139.636364 0h744.727272a139.636364 139.636364 0 0 1 139.636364 139.636364v744.727272a139.636364 139.636364 0 0 1-139.636364 139.636364H139.636364a139.636364 139.636364 0 0 1-139.636364-139.636364V139.636364a139.636364 139.636364 0 0 1 139.636364-139.636364z m223.961212 329.18497H795.306667c14.894545 0 26.980848-12.101818 26.980848-26.980849a26.996364 26.996364 0 0 0-26.996363-26.980848H363.613091a26.996364 26.996364 0 1 0 0 53.961697zM795.306667 491.085576H363.597576a26.996364 26.996364 0 0 0 0 53.961697H795.306667a26.996364 26.996364 0 0 0 0-53.961697z m0 215.862303H363.597576a26.996364 26.996364 0 0 0 0 53.961697H795.306667a26.996364 26.996364 0 1 0 0-53.961697zM236.140606 292.258909v63.922424h33.016242V248.242424H246.070303l-3.04097 3.630546c-6.035394 7.245576-13.932606 13.622303-23.396848 19.00606l-4.437333 2.513455v29.509818l15.39103-7.71103c1.861818-0.930909 3.723636-1.923879 5.554424-2.932364z m34.800485 231.020606c6.159515-8.766061 9.510788-16.368485 10.24-23.210667 0.729212-6.981818-0.356848-13.187879-3.196121-18.52509a31.061333 31.061333 0 0 0-11.170909-11.962182 37.577697 37.577697 0 0 0-12.644849-4.856243 49.943273 49.943273 0 0 0-12.412121-0.403394 38.818909 38.818909 0 0 0-22.093576 7.974788c-6.004364 4.654545-10.860606 11.838061-14.413576 21.302303l-3.552969 9.510788 28.997818 4.235637 2.52897-6.578425a14.692848 14.692848 0 0 1 5.088969-7.090424 14.196364 14.196364 0 0 1 6.826667-2.622061c1.396364-0.217212 2.808242 0.170667 3.878788 1.055031a5.104485 5.104485 0 0 1 2.172121 3.397818c0.186182 1.086061 0.155152 3.568485-1.908364 8.067879-1.365333 2.854788-4.778667 8.455758-13.591272 18.866424-7.245576 8.533333-13.218909 14.848-17.764849 18.695758-6.671515 5.694061-10.317576 12.381091-10.891636 19.859393v11.046788h75.605333v-26.282666h-30.316606c8.579879-9.541818 14.739394-16.958061 18.618182-22.49697z m1.908364 207.344485c3.366788-3.382303 5.802667-7.447273 7.090424-11.884606 2.048-7.292121 1.629091-14.196364-1.287758-20.557576-3.04097-6.62497-8.347152-11.605333-15.763394-14.81697-6.842182-2.885818-14.739394-3.987394-23.536485-3.10303-9.402182 0.961939-17.035636 4.359758-22.683151 10.115879a52.161939 52.161939 0 0 0-11.512243 18.494061l-3.459878 9.262545 25.832727 3.816727v20.247273l8.052364 1.039515c8.486788 1.070545 12.024242 2.808242 13.34303 3.739152 1.086061 0.760242 2.342788 2.032485 2.637576 5.011394a8.812606 8.812606 0 0 1-2.187637 6.873212 6.671515 6.671515 0 0 1-5.538909 2.404848 8.083394 8.083394 0 0 1-6.392242-1.861818 16.368485 16.368485 0 0 1-5.05794-7.586909l-2.435878-6.997333-27.989334 4.142545 1.706667 8.347152c1.954909 9.619394 6.609455 17.159758 13.79297 22.403878a43.132121 43.132121 0 0 0 25.025939 8.192h1.163636a41.984 41.984 0 0 0 24.870788-7.850666c7.757576-5.554424 12.350061-12.877576 13.699879-21.876364 1.241212-8.704-0.201697-16.089212-4.297697-21.876364a32.519758 32.519758 0 0 0-5.073454-5.678545z" p-id="6782"></path></svg>