<?xml version="1.0" standalone="no"?><!DOCTYPE svg PUBLIC "-//W3C//DTD SVG 1.1//EN" "http://www.w3.org/Graphics/SVG/1.1/DTD/svg11.dtd"><svg t="1558953014196" class="icon" style="" viewBox="0 0 1024 1024" version="1.1" xmlns="http://www.w3.org/2000/svg" p-id="7863" xmlns:xlink="http://www.w3.org/1999/xlink" width="200" height="200"><defs><style type="text/css"></style></defs><path d="M704 64l-128 0c-25.6 0-42.666667 17.066667-42.666667 42.666667l0 810.666667c0 25.6 17.066667 42.666667 42.666667 42.666667l128 0c25.6 0 42.666667-17.066667 42.666667-42.666667l0-810.666667C746.666667 81.066667 729.6 64 704 64zM682.666667 576l-85.333333 0c-12.8 0-21.333333-8.533333-21.333333-21.333333 0-12.8 8.533333-21.333333 21.333333-21.333333l85.333333 0c12.8 0 21.333333 8.533333 21.333333 21.333333C704 567.466667 695.466667 576 682.666667 576zM682.666667 448l-85.333333 0c-12.8 0-21.333333-8.533333-21.333333-21.333333 0-12.8 8.533333-21.333333 21.333333-21.333333l85.333333 0c12.8 0 21.333333 8.533333 21.333333 21.333333C704 439.466667 695.466667 448 682.666667 448zM682.666667 320l-85.333333 0c-12.8 0-21.333333-8.533333-21.333333-21.333333 0-12.8 8.533333-21.333333 21.333333-21.333333l85.333333 0c12.8 0 21.333333 8.533333 21.333333 21.333333C704 311.466667 695.466667 320 682.666667 320zM682.666667 192l-85.333333 0c-12.8 0-21.333333-8.533333-21.333333-21.333333 0-12.8 8.533333-21.333333 21.333333-21.333333l85.333333 0c12.8 0 21.333333 8.533333 21.333333 21.333333C704 183.466667 695.466667 192 682.666667 192z" p-id="7864"></path><path d="M503.466667 110.933333 379.733333 68.266667C358.4 59.733333 332.8 68.266667 324.266667 89.6l-298.666667 763.733333c-8.533333 21.333333 4.266667 46.933333 25.6 55.466667l123.733333 46.933333c21.333333 8.533333 46.933333-4.266667 55.466667-25.6l298.666667-763.733333C537.6 145.066667 529.066667 119.466667 503.466667 110.933333zM324.266667 576c-4.266667 12.8-17.066667 17.066667-29.866667 12.8L213.333333 558.933333c-12.8-4.266667-17.066667-17.066667-12.8-29.866667s17.066667-17.066667 29.866667-12.8l81.066667 29.866667C324.266667 550.4 328.533333 563.2 324.266667 576zM371.2 456.533333C366.933333 465.066667 354.133333 469.333333 341.333333 465.066667l-81.066667-29.866667c-12.8-4.266667-17.066667-17.066667-12.8-29.866667 4.266667-12.8 17.066667-17.066667 29.866667-12.8L358.4 426.666667C371.2 430.933333 375.466667 443.733333 371.2 456.533333zM418.133333 332.8C413.866667 345.6 401.066667 349.866667 388.266667 345.6L307.2 315.733333C294.4 311.466667 290.133333 298.666667 294.4 285.866667 298.666667 277.333333 311.466667 273.066667 324.266667 277.333333l81.066667 29.866667C418.133333 311.466667 422.4 324.266667 418.133333 332.8zM465.066667 213.333333c-4.266667 12.8-17.066667 17.066667-29.866667 12.8L354.133333 196.266667C341.333333 192 337.066667 179.2 341.333333 166.4c4.266667-12.8 17.066667-17.066667 29.866667-12.8l81.066667 29.866667C465.066667 187.733333 469.333333 200.533333 465.066667 213.333333z" p-id="7865"></path><path d="M960 64l-128 0c-25.6 0-42.666667 17.066667-42.666667 42.666667l0 810.666667c0 25.6 17.066667 42.666667 42.666667 42.666667l128 0c25.6 0 42.666667-17.066667 42.666667-42.666667l0-810.666667C1002.666667 81.066667 985.6 64 960 64zM938.666667 576l-85.333333 0c-12.8 0-21.333333-8.533333-21.333333-21.333333 0-12.8 8.533333-21.333333 21.333333-21.333333l85.333333 0c12.8 0 21.333333 8.533333 21.333333 21.333333C960 567.466667 951.466667 576 938.666667 576zM938.666667 448l-85.333333 0c-12.8 0-21.333333-8.533333-21.333333-21.333333 0-12.8 8.533333-21.333333 21.333333-21.333333l85.333333 0c12.8 0 21.333333 8.533333 21.333333 21.333333C960 439.466667 951.466667 448 938.666667 448zM938.666667 320l-85.333333 0c-12.8 0-21.333333-8.533333-21.333333-21.333333 0-12.8 8.533333-21.333333 21.333333-21.333333l85.333333 0c12.8 0 21.333333 8.533333 21.333333 21.333333C960 311.466667 951.466667 320 938.666667 320zM938.666667 192l-85.333333 0c-12.8 0-21.333333-8.533333-21.333333-21.333333 0-12.8 8.533333-21.333333 21.333333-21.333333l85.333333 0c12.8 0 21.333333 8.533333 21.333333 21.333333C960 183.466667 951.466667 192 938.666667 192z" p-id="7866"></path></svg>