<?xml version="1.0" standalone="no"?><!DOCTYPE svg PUBLIC "-//W3C//DTD SVG 1.1//EN" "http://www.w3.org/Graphics/SVG/1.1/DTD/svg11.dtd"><svg t="1558950294885" class="icon" style="" viewBox="0 0 1024 1024" version="1.1" xmlns="http://www.w3.org/2000/svg" p-id="6163" xmlns:xlink="http://www.w3.org/1999/xlink" width="200" height="200"><defs><style type="text/css"></style></defs><path d="M774.4 742.4c0-44.8-12.8-89.6-38.4-121.6C691.2 569.6 640 544 576 544c-38.4 0-76.8 0-115.2 0-44.8 0-83.2 12.8-121.6 38.4-44.8 32-70.4 76.8-76.8 128-6.4 57.6 0 121.6-6.4 185.6 6.4 0 19.2 6.4 25.6 6.4 76.8 19.2 147.2 38.4 224 38.4 44.8 0 96 0 140.8-6.4 38.4-6.4 76.8-19.2 115.2-32 6.4 0 6.4-6.4 6.4-12.8C774.4 838.4 774.4 787.2 774.4 742.4z" p-id="6164"></path><path d="M358.4 531.2c12.8-6.4 19.2-6.4 32-12.8-38.4-38.4-57.6-76.8-57.6-128-44.8 0-89.6 0-134.4 0C172.8 390.4 147.2 396.8 128 403.2 57.6 428.8 0 499.2 0 576c0 51.2 0 102.4 0 160 0 6.4 0 6.4 6.4 12.8 51.2 12.8 102.4 25.6 153.6 32 19.2 0 44.8 6.4 64 6.4 0-12.8 0-25.6 0-38.4 0-19.2 0-38.4 6.4-57.6C249.6 614.4 294.4 563.2 358.4 531.2z" p-id="6165"></path><path d="M1024 588.8c0-25.6-6.4-57.6-19.2-83.2-38.4-76.8-96-115.2-179.2-115.2-121.6 0 0 0-121.6 0 0 51.2-19.2 96-57.6 128 6.4 0 12.8 6.4 12.8 6.4 32 12.8 64 32 89.6 57.6 38.4 44.8 57.6 96 57.6 153.6 0 12.8 0 32 0 44.8 32-6.4 57.6-6.4 89.6-12.8 38.4-6.4 83.2-19.2 121.6-38.4 6.4 0 6.4-6.4 6.4-12.8C1024 684.8 1024 633.6 1024 588.8z" p-id="6166"></path><path d="M518.4 537.6c83.2 0 153.6-70.4 147.2-153.6 0-83.2-70.4-147.2-147.2-147.2-83.2 0-153.6 64-153.6 147.2C371.2 467.2 435.2 537.6 518.4 537.6z" p-id="6167"></path><path d="M704 371.2C723.2 377.6 742.4 384 768 384c83.2 0 153.6-70.4 147.2-153.6 0-83.2-70.4-147.2-147.2-147.2-83.2 0-153.6 64-153.6 147.2C665.6 256 697.6 307.2 704 371.2z" p-id="6168"></path><path d="M256 384c25.6 0 57.6-6.4 76.8-19.2 6.4-51.2 32-96 70.4-121.6 0 0 0-6.4 0-6.4 0-83.2-70.4-147.2-147.2-147.2-83.2 0-153.6 64-153.6 147.2C102.4 313.6 172.8 384 256 384z" p-id="6169"></path></svg>