<?xml version="1.0" standalone="no"?><!DOCTYPE svg PUBLIC "-//W3C//DTD SVG 1.1//EN" "http://www.w3.org/Graphics/SVG/1.1/DTD/svg11.dtd"><svg t="1558952193075" class="icon" style="" viewBox="0 0 1229 1024" version="1.1" xmlns="http://www.w3.org/2000/svg" p-id="7187" xmlns:xlink="http://www.w3.org/1999/xlink" width="240.0390625" height="200"><defs><style type="text/css"></style></defs><path d="M929.109333 796.8768 705.194667 708.8128C705.194667 708.8128 662.528 692.087467 645.9392 675.6352 635.2896 665.053867 636.040533 640.068267 645.5296 608.187733 654.9504 576.3072 769.706667 446.805333 769.706667 329.1136 769.706667 147.319467 651.332267 0 505.378133 0 359.424 0 241.117867 147.319467 241.117867 329.1136 241.117867 441.821867 343.313067 576.170667 355.9424 600.610133 368.571733 625.0496 365.499733 662.254933 355.5328 673.518933 340.5824 690.449067 285.9008 707.447467 285.9008 707.447467L84.104533 798.242133C36.932267 815.3088 0 860.228267 0 910.882133L0 934.912C0 990.208 44.4416 1024 99.1232 1024L437.589333 1024 553.5744 1024 914.0224 1024C968.704 1024 1013.1456 990.208 1013.1456 934.912L1013.1456 910.882133C1013.1456 860.228267 976.213333 813.943467 929.109333 796.8768L929.109333 796.8768ZM914.0224 969.454933 99.1232 969.454933C80.896 969.454933 57.002667 943.786667 57.9584 910.882133 58.914133 877.9776 85.265067 860.5696 106.359467 852.923733L306.858667 763.4944C306.858667 763.4944 374.852267 744.448 399.5648 711.133867 422.638933 680.072533 422.570667 650.308267 417.860267 622.318933 411.374933 583.953067 411.8528 574.2592 388.642133 545.860267 365.499733 517.597867 296.004267 417.518933 296.004267 329.3184 296.004267 187.050667 391.304533 58.094933 505.514667 58.094933 619.793067 58.094933 716.3904 187.050667 716.3904 329.3184 716.3904 421.410133 641.2288 507.767467 617.8816 547.703467 592.418133 591.394133 588.322133 610.372267 586.410667 628.462933 584.4992 646.5536 583.2704 688.469333 597.879467 711.133867 612.488533 733.866667 682.871467 763.4944 682.871467 763.4944L906.786133 851.5584C927.880533 859.204267 958.600533 883.643733 959.2832 912.247467 959.965867 940.8512 932.2496 969.454933 914.0224 969.454933L914.0224 969.454933ZM890.333867 416.5632C867.054933 416.5632 848.145067 404.616533 848.145067 379.357867 848.145067 354.167467 867.054933 342.2208 890.333867 342.2208L1186.747733 342.2208C1210.026667 342.2208 1227.5712 354.167467 1227.5712 379.357867 1227.5712 404.616533 1207.364267 416.5632 1184.017067 416.5632L890.333867 416.5632 890.333867 416.5632ZM953.207467 586.820267C929.928533 586.820267 911.018667 574.8736 911.018667 549.6832 911.018667 524.424533 929.928533 512.477867 953.207467 512.477867L1187.293867 512.477867C1210.641067 512.477867 1226.820267 524.424533 1226.820267 549.6832 1226.820267 574.8736 1209.275733 586.820267 1185.9968 586.820267L953.207467 586.820267 953.207467 586.820267ZM1031.031467 747.246933C1007.752533 747.246933 988.910933 735.300267 988.910933 710.0416 988.910933 684.8512 1007.752533 672.904533 1031.031467 672.904533L1187.976533 672.904533C1211.323733 672.904533 1228.8 684.8512 1228.8 710.0416 1228.8 735.300267 1209.9584 747.246933 1186.679467 747.246933L1031.031467 747.246933 1031.031467 747.246933Z" p-id="7188"></path></svg>